<?xml version="1.0" encoding="utf-8"?>
<!-- Generator: Adobe Illustrator 28.3.0, SVG Export Plug-In . SVG Version: 6.00 Build 0)  -->
<svg version="1.1" id="圖層_1" xmlns="http://www.w3.org/2000/svg" xmlns:xlink="http://www.w3.org/1999/xlink" x="0px" y="0px"
	 width="32px" height="32px" viewBox="0 0 32 32" style="enable-background:new 0 0 32 32;" xml:space="preserve">
<style type="text/css">
	.st0{fill:#5ACBFF;}
	.st1{fill:none;}
	.st2{fill:#FEFEFE;}
	.st3{fill:#FFFFFF;}
</style>
<g>
	<g>
		<circle class="st0" cx="16" cy="16" r="16"/>
	</g>
	<g>
		<g>
			<rect x="5.89" y="5.89" class="st1" width="20.21" height="20.21"/>
		</g>
		<g>
			<path class="st2" d="M22.87,22.5c0.1,0.1,0.1,0.27,0,0.37c-0.05,0.05-0.12,0.08-0.18,0.08c-0.07,0-0.13-0.03-0.18-0.08l-6.5-6.5
				l-6.5,6.5c-0.05,0.05-0.12,0.08-0.18,0.08c-0.07,0-0.13-0.03-0.18-0.08c-0.1-0.1-0.1-0.27,0-0.37l6.5-6.5l-6.5-6.5
				c-0.1-0.1-0.1-0.27,0-0.37c0.1-0.1,0.27-0.1,0.37,0l6.5,6.5l6.5-6.5c0.1-0.1,0.27-0.1,0.37,0c0.1,0.1,0.1,0.27,0,0.37l-6.5,6.5
				L22.87,22.5z"/>
			<path class="st3" d="M22.69,23.7c-0.27,0-0.53-0.11-0.72-0.3L16,17.43l-5.97,5.97c-0.39,0.39-1.05,0.38-1.43,0
				c-0.19-0.19-0.3-0.44-0.3-0.71c0-0.27,0.11-0.52,0.3-0.71L14.57,16L8.6,10.03C8.41,9.84,8.3,9.58,8.3,9.31S8.41,8.79,8.6,8.6
				c0.39-0.39,1.03-0.39,1.43,0L16,14.57l5.97-5.97c0.38-0.38,1.05-0.38,1.43,0c0.19,0.19,0.3,0.44,0.3,0.71s-0.11,0.52-0.3,0.71
				L17.43,16l5.97,5.97c0.19,0.19,0.3,0.44,0.3,0.71c0,0.27-0.11,0.52-0.3,0.71S22.96,23.7,22.69,23.7z M22.34,23.03
				C22.34,23.03,22.34,23.03,22.34,23.03L22.34,23.03z M23.03,22.34L23.03,22.34C23.03,22.34,23.03,22.34,23.03,22.34z"/>
		</g>
	</g>
</g>
</svg>
